<svg width="114" height="24" viewBox="0 0 114 24" fill="none" xmlns="http://www.w3.org/2000/svg">
<path d="M1.18871 17.95C0.540323 17.95 0 17.4126 0 16.7677V2.41838C0 1.7466 0.540323 1.20917 1.18871 1.20917H4.67379C5.94355 1.20917 7.13226 1.47788 8.26694 1.96157C9.34758 2.44525 10.3202 3.14391 11.0766 4.00379C11.8331 4.86368 12.4274 5.85792 12.7786 6.98652C13.1298 8.14199 13.2649 9.32433 13.1028 10.5604C12.8597 12.5758 11.8871 14.4568 10.3472 15.8272C8.80726 17.1977 6.80807 17.95 4.72782 17.95H1.18871ZM4.72782 15.5585C7.78065 15.5585 10.3472 13.3013 10.6984 10.2917C10.9145 8.49132 10.4012 6.82529 9.29355 5.56233C8.13186 4.29938 6.48387 3.57385 4.67379 3.57385H2.40444V15.5585H4.72782Z" fill="#E1004D"/>
<path d="M26.4218 12.0383V16.714C26.4218 17.4126 25.9085 17.8963 25.2331 17.8963C24.7468 17.8963 24.0714 17.3857 24.0714 16.714C23.0448 17.5738 21.8831 17.8963 20.5323 17.8963C17.1553 17.8963 14.4537 15.3973 14.4537 12.0115C14.4537 8.65253 17.1553 5.96539 20.5323 5.96539C23.9093 5.96539 26.4218 8.67941 26.4218 12.0383ZM24.0714 12.0383C24.0714 10.023 22.5315 8.33008 20.5323 8.33008C18.5061 8.33008 16.8041 10.023 16.8041 12.0383C16.8041 14.0537 18.5061 15.5585 20.5323 15.5585C22.5315 15.5585 24.0714 14.0268 24.0714 12.0383Z" fill="#E1004D"/>
<path d="M39.9298 11.9309V16.7408C39.9298 17.4126 39.3895 17.9232 38.7411 17.9232C38.0927 17.9232 37.5524 17.3858 37.5524 16.7408V11.9309C37.5524 9.91551 35.9314 8.30322 33.9052 8.30322C31.879 8.30322 30.258 9.91551 30.258 11.9309V16.7408C30.258 17.4126 29.7177 17.9232 29.0693 17.9232C28.4209 17.9232 27.8806 17.3858 27.8806 16.7408V11.9309C27.8806 8.62568 30.5822 5.93854 33.9052 5.93854C37.2012 5.93854 39.9298 8.62568 39.9298 11.9309Z" fill="#E1004D"/>
<path d="M53.3298 12.0383V16.714C53.3298 17.4126 52.8165 17.8963 52.1411 17.8963C51.6548 17.8963 50.9794 17.3857 50.9794 16.714C49.9528 17.5738 48.7911 17.8963 47.4403 17.8963C44.0632 17.8963 41.3616 15.3973 41.3616 12.0115C41.3616 8.65253 44.0632 5.96539 47.4403 5.96539C50.8173 5.99226 53.3298 8.67941 53.3298 12.0383ZM50.9794 12.0383C50.9794 10.023 49.4395 8.33008 47.4403 8.33008C45.4141 8.33008 43.712 10.023 43.712 12.0383C43.712 14.0537 45.4141 15.5585 47.4403 15.5585C49.4395 15.5585 50.9794 14.0268 50.9794 12.0383Z" fill="#E1004D"/>
<path d="M80.8064 11.9309C80.8064 12.5758 80.2661 13.1132 79.6177 13.1132H71.3508C71.8641 14.5374 73.1879 15.5854 74.8088 15.5854C75.3492 15.5854 76.3488 15.5316 77.5105 14.8061C78.0508 14.4568 78.8072 14.7792 79.1044 15.3435C79.4016 15.9347 79.0774 16.5527 78.5371 16.9289C76.9431 17.9769 75.7274 17.95 74.8359 17.95C71.5129 17.95 68.8113 15.2629 68.8113 11.9577C68.8113 8.65254 71.5129 5.9654 74.8359 5.9654C77.6725 5.93853 80.8064 8.0345 80.8064 11.9309ZM71.3238 10.7485H78.2669C77.7536 9.08249 76.2137 8.30322 74.7818 8.30322C73.1609 8.30322 71.8101 9.32433 71.3238 10.7485Z" fill="#E1004D"/>
<path d="M91.9371 7.12092V1.18234C91.9371 0.537428 92.4775 0 93.1259 0C93.8013 0 94.3146 0.537428 94.3146 1.18234V11.8772V11.904C94.3146 15.2092 91.613 17.8964 88.29 17.8964C84.967 17.8964 82.2654 15.2092 82.2654 11.904C82.2654 8.59885 84.967 5.91171 88.29 5.91171C89.6678 5.88484 90.9376 6.34165 91.9371 7.12092ZM91.9371 11.8772C91.9371 9.8618 90.3162 8.24952 88.29 8.24952C86.2638 8.24952 84.6428 9.8618 84.6428 11.8772C84.6428 13.8656 86.2638 15.5048 88.29 15.5048C90.3162 15.5048 91.9371 13.8925 91.9371 11.8772Z" fill="#E1004D"/>
<path d="M57.6302 16.5732L57.6302 22.5118C57.6302 23.1567 57.0899 23.6941 56.4415 23.6941C55.7661 23.6941 55.2528 23.1567 55.2528 22.5118L55.2528 11.8169L55.2528 11.7901C55.2528 8.48488 57.9544 5.79774 61.2774 5.79774C64.6004 5.79774 67.302 8.48488 67.302 11.7901C67.302 15.0952 64.6004 17.7824 61.2774 17.7824C59.8996 17.8093 58.6298 17.3524 57.6302 16.5732ZM57.6302 11.8169C57.6302 13.8323 59.2512 15.4446 61.2774 15.4446C63.3036 15.4446 64.9246 13.8323 64.9246 11.8169C64.9246 9.82845 63.3036 8.18929 61.2774 8.18929C59.2512 8.18929 57.6302 9.80158 57.6302 11.8169Z" fill="#E1004D"/>
<path d="M105.526 7.14774V13.1401V13.1669C105.499 15.8272 103.338 17.9769 100.663 17.9769C97.9887 17.9769 95.8274 15.8272 95.8274 13.1669V13.1401V7.14774C95.8274 6.50282 96.3677 5.96539 97.0161 5.96539C97.6915 5.96539 98.2048 6.50282 98.2048 7.14774V13.1132C98.2048 14.4836 99.3125 15.5854 100.69 15.5854C102.095 15.5854 103.176 14.4568 103.176 13.1132V7.14774C103.176 6.50282 103.716 5.96539 104.364 5.96539C104.986 5.96539 105.526 6.50282 105.526 7.14774Z" fill="#E1004D"/>
<path d="M107.012 16.7677V1.2092C107.012 0.564283 107.552 0.0268555 108.201 0.0268555C108.849 0.0268555 109.389 0.564283 109.389 1.2092V16.7409C109.389 17.4127 108.849 17.9232 108.201 17.9232C107.552 17.9501 107.012 17.4395 107.012 16.7677Z" fill="#E1004D"/>
<path d="M111.227 3.25144C111.01 3.03647 110.875 2.71401 110.875 2.41843C110.875 2.12284 111.01 1.80038 111.227 1.58541C111.443 1.37044 111.767 1.23608 112.064 1.23608C112.388 1.23608 112.685 1.37044 112.902 1.58541C113.118 1.80038 113.226 2.12284 113.226 2.41843C113.226 2.71401 113.118 3.03647 112.902 3.25144C112.685 3.46641 112.361 3.5739 112.064 3.5739C111.767 3.5739 111.443 3.46641 111.227 3.25144ZM110.875 16.7678V7.14779C110.875 6.50288 111.416 5.96545 112.064 5.96545C112.712 5.96545 113.253 6.50288 113.253 7.14779V16.7678C113.253 17.4395 112.712 17.9501 112.064 17.9501C111.416 17.9501 110.875 17.4395 110.875 16.7678Z" fill="#E1004D"/>
</svg>
