<svg width="22" height="22" viewBox="0 0 22 22" fill="none" xmlns="http://www.w3.org/2000/svg">
<path d="M16.5 7.33333C18.0188 7.33333 19.25 6.10211 19.25 4.58333C19.25 3.06455 18.0188 1.83333 16.5 1.83333C14.9812 1.83333 13.75 3.06455 13.75 4.58333C13.75 6.10211 14.9812 7.33333 16.5 7.33333Z" stroke="#E1004D" stroke-width="2" stroke-linecap="round" stroke-linejoin="round"/>
<path d="M5.5 13.75C7.01878 13.75 8.25 12.5188 8.25 11C8.25 9.48122 7.01878 8.25 5.5 8.25C3.98122 8.25 2.75 9.48122 2.75 11C2.75 12.5188 3.98122 13.75 5.5 13.75Z" stroke="#E1004D" stroke-width="2" stroke-linecap="round" stroke-linejoin="round"/>
<path d="M16.5 20.1667C18.0188 20.1667 19.25 18.9354 19.25 17.4167C19.25 15.8979 18.0188 14.6667 16.5 14.6667C14.9812 14.6667 13.75 15.8979 13.75 17.4167C13.75 18.9354 14.9812 20.1667 16.5 20.1667Z" stroke="#E1004D" stroke-width="2" stroke-linecap="round" stroke-linejoin="round"/>
<path d="M7.87418 12.3842L14.135 16.0325" stroke="#E1004D" stroke-width="2" stroke-linecap="round" stroke-linejoin="round"/>
<path d="M14.1258 5.9675L7.87418 9.61583" stroke="#E1004D" stroke-width="2" stroke-linecap="round" stroke-linejoin="round"/>
</svg>
